<svg xmlns="http://www.w3.org/2000/svg" viewBox="0 0 16.86 30.98"><defs><style>.cls-1{fill:#fff;}</style></defs><title>Ativo 2</title><g id="Camada_2" data-name="Camada 2"><g id="Layer_1" data-name="Layer 1"><path class="cls-1" d="M5.86,22.17a12.79,12.79,0,0,1,.56-3.91,10.34,10.34,0,0,1,2.12-3.18l2.73-2.81A6.3,6.3,0,0,0,13,8a4.87,4.87,0,0,0-1.14-3.42A4.32,4.32,0,0,0,8.54,3.37,5,5,0,0,0,5.13,4.5a3.8,3.8,0,0,0-1.28,3H0A7.06,7.06,0,0,1,2.4,2.07,9,9,0,0,1,8.54,0a8.44,8.44,0,0,1,6.12,2.11,7.64,7.64,0,0,1,2.2,5.79q0,3.64-3.37,7.18l-2.27,2.25a7,7,0,0,0-1.51,4.84ZM5.7,28.79a2.27,2.27,0,0,1,.57-1.58A2.13,2.13,0,0,1,8,26.56a2.19,2.19,0,0,1,1.71.65,2.28,2.28,0,0,1,.58,1.58,2.22,2.22,0,0,1-.58,1.57A2.25,2.25,0,0,1,8,31a2.19,2.19,0,0,1-1.69-.62A2.21,2.21,0,0,1,5.7,28.79Z"/></g></g></svg>