<?xml version="1.0" encoding="utf-8"?>
<!-- Generator: Adobe Illustrator 24.0.1, SVG Export Plug-In . SVG Version: 6.00 Build 0)  -->
<svg version="1.1" id="Camada_1" xmlns="http://www.w3.org/2000/svg" xmlns:xlink="http://www.w3.org/1999/xlink" x="0px" y="0px"
	 viewBox="0 0 43.4 57.1" style="enable-background:new 0 0 43.4 57.1;" xml:space="preserve">
<style type="text/css">
	.st0{fill:#CCCCCC;}
</style>
<title>Ativo 3</title>
<path class="st0" d="M38.1,19.2h-1.3v-3.7c0-8.2-6.4-15.2-14.5-15.5C18.3-0.1,14.7,1.2,12,3.6C10.3,5,10.3,7.5,11.8,9l0,0
	c1.3,1.3,3.5,1.5,4.9,0.2c1.4-1.2,3.3-1.9,5.4-1.8c4.1,0.3,7.2,3.8,7.2,7.9l0,3.8h-8.2h-7.1H6.6H5.3c-2.9,0-5.3,2.4-5.3,5.3v27.3
	c0,2.9,2.4,5.3,5.3,5.3h32.8c2.9,0,5.3-2.4,5.3-5.3V24.5C43.4,21.6,41,19.2,38.1,19.2z M25.1,40.3l1.9,5.6c0.3,0.8-0.3,1.7-1.2,1.7
	h-8.1c-0.9,0-1.5-0.9-1.2-1.7l1.9-5.6c0.2-0.5,0-1-0.4-1.4c-1.5-1.3-2.4-3.4-1.9-5.7c0.4-2.2,2.2-4,4.3-4.5c3.8-0.9,7.2,2,7.2,5.7
	c0,1.8-0.8,3.4-2.1,4.5C25.1,39.3,25,39.9,25.1,40.3z"/>
<path class="st0" d="M-90.7-18.7h-1.3v-4.1c0-8.3-6.8-15.1-15.1-15.1c-7.2,0-13.3,5.1-14.7,11.9h7.8c1.2-2.6,3.9-4.5,6.9-4.5
	c4.2,0,7.6,3.4,7.6,7.6v4.1h-8.2h-7.1h-7.4h-1.3c-2.9,0-5.3,2.4-5.3,5.3v27.3c0,2.9,2.4,5.3,5.3,5.3h32.8c2.9,0,5.3-2.4,5.3-5.3
	v-27.3C-85.5-16.3-87.8-18.7-90.7-18.7z M-103.7,2.5l1.9,5.6c0.3,0.8-0.3,1.7-1.2,1.7h-8.1c-0.9,0-1.5-0.9-1.2-1.7l1.9-5.6
	c0.2-0.5,0-1-0.4-1.4c-1.5-1.3-2.4-3.4-1.9-5.7c0.4-2.2,2.2-4,4.3-4.5c3.8-0.9,7.2,2,7.2,5.7c0,1.8-0.8,3.4-2.1,4.5
	C-103.8,1.4-103.9,2-103.7,2.5z"/>
<path class="st0" d="M95.5,19.2v-4.1c0-8.3,6.8-15.1,15.1-15.1c7.2,0,13.3,5.1,14.7,11.9h-7.8c-1.2-2.6-3.9-4.5-6.9-4.5
	c-4.2,0-7.6,3.4-7.6,7.6v4.1H95.5z"/>
<path class="st0" d="M106.7,19.2h-1.3v0h-7.4v0h-8.2h-7.1h-7.4h-1.3c-2.9,0-5.3,2.4-5.3,5.3v27.3c0,2.9,2.4,5.3,5.3,5.3h32.8
	c2.9,0,5.3-2.4,5.3-5.3V24.5C112,21.6,109.6,19.2,106.7,19.2z M93.7,40.3l1.9,5.6c0.3,0.8-0.3,1.7-1.2,1.7h-8.1
	c-0.9,0-1.5-0.9-1.2-1.7l1.9-5.6c0.2-0.5,0-1-0.4-1.4c-1.5-1.3-2.4-3.4-1.9-5.7c0.4-2.2,2.2-4,4.3-4.5c3.8-0.9,7.2,2,7.2,5.7
	c0,1.8-0.8,3.4-2.1,4.5C93.7,39.3,93.5,39.9,93.7,40.3z"/>
<path class="st0" d="M-85.2,28.7c-8.1,0.4-14.3,7.4-14.3,15.5v3.5h-24.1c-2.9,0-5.3,2.4-5.3,5.3v27.3c0,2.9,2.4,5.3,5.3,5.3h32.8
	c2.9,0,5.3-2.4,5.3-5.3V53c0-2.9-2.4-5.3-5.3-5.3h-1.3V44c0-3.9,2.8-7.4,6.6-7.9c4.7-0.6,8.7,3,8.7,7.6v0.3c0,2,1.7,3.7,3.7,3.7l0,0
	c2,0,3.7-1.7,3.7-3.7v-0.3C-69.4,35.2-76.5,28.3-85.2,28.7z M-103.7,68.9l1.9,5.6c0.3,0.8-0.3,1.7-1.2,1.7h-8.1
	c-0.9,0-1.5-0.9-1.2-1.7l1.9-5.6c0.2-0.5,0-1-0.4-1.4c-1.5-1.3-2.4-3.4-1.9-5.7c0.4-2.2,2.2-4,4.3-4.5c3.8-0.9,7.2,2,7.2,5.7
	c0,1.8-0.8,3.4-2.1,4.5C-103.8,67.9-103.9,68.4-103.7,68.9z"/>
</svg>
