<?xml version="1.0" encoding="utf-8"?>
<!-- Generator: Adobe Illustrator 24.0.1, SVG Export Plug-In . SVG Version: 6.00 Build 0)  -->
<svg version="1.1" id="Camada_1" xmlns="http://www.w3.org/2000/svg" xmlns:xlink="http://www.w3.org/1999/xlink" x="0px" y="0px"
	 viewBox="0 0 43.4 57.1" style="enable-background:new 0 0 43.4 57.1;" xml:space="preserve">
<style type="text/css">
	.st0{fill:#8769F7;}
</style>
<title>Ativo 2</title>
<path class="st0" d="M38.1,19.2h-1.3v-4.1C36.8,6.8,30,0,21.7,0S6.6,6.8,6.6,15.1v4.1H5.3c-2.9,0-5.3,2.4-5.3,5.3v27.3
	c0,2.9,2.4,5.3,5.3,5.3h32.8c2.9,0,5.3-2.4,5.3-5.3V24.5C43.4,21.6,41,19.2,38.1,19.2z M14,15.1c0-4.2,3.4-7.6,7.7-7.6
	c4.2,0,7.6,3.4,7.6,7.6v4.1H14V15.1z M25.1,40.3l1.9,5.6c0.3,0.8-0.3,1.7-1.2,1.7h-8.1c-0.9,0-1.5-0.9-1.2-1.7l1.9-5.6
	c0.2-0.5,0-1-0.4-1.4c-1.5-1.3-2.4-3.4-1.9-5.7c0.4-2.2,2.2-4,4.3-4.5c3.8-0.9,7.2,2,7.2,5.7c0,1.8-0.8,3.4-2.1,4.5
	C25.1,39.3,25,39.9,25.1,40.3z"/>
</svg>
