<svg xmlns="http://www.w3.org/2000/svg" viewBox="0 0 22.66 32.55"><defs><style>.cls-1{fill:#fff;}</style></defs><title>Ativo 1</title><g id="Camada_2" data-name="Camada 2"><g id="Layer_1" data-name="Layer 1"><path class="cls-1" d="M19.34,3.32a11.35,11.35,0,1,0-16,16.07l0,0a5.54,5.54,0,0,1,1.54,3.8v1.29A2.1,2.1,0,0,0,7,26.61h8.68a2.1,2.1,0,0,0,2.09-2.1V23.3h0a5.57,5.57,0,0,1,1.64-4l0,0A11.38,11.38,0,0,0,19.34,3.32ZM18.11,18.15l-.05.05a7.29,7.29,0,0,0-1.77,3.11,1.47,1.47,0,0,1-1.41,1.1H7.77a1.47,1.47,0,0,1-1.4-1.1,7.28,7.28,0,0,0-1.88-3.22l0,0a9.6,9.6,0,1,1,13.65.09Z"/><path class="cls-1" d="M8.11,29.33a3.22,3.22,0,0,0,3.22,3.22h0a3.22,3.22,0,0,0,3.21-3.22v-.17H8.11Z"/><path class="cls-1" d="M15.92,7.07a6.62,6.62,0,0,0-4.73-2,.88.88,0,1,0,0,1.75,4.94,4.94,0,0,1,4.91,4.36A.88.88,0,0,0,17,12h.1a.87.87,0,0,0,.76-1A6.62,6.62,0,0,0,15.92,7.07Z"/></g></g></svg>