<svg xmlns="http://www.w3.org/2000/svg" viewBox="0 0 32 32"><defs><style>.cls-1{fill:#fff;}</style></defs><title>Ativo 3</title><g id="Camada_2" data-name="Camada 2"><g id="Layer_1" data-name="Layer 1"><path class="cls-1" d="M16,0A16,16,0,1,0,32,16,16,16,0,0,0,16,0Zm0,30A14,14,0,1,1,30,16,14,14,0,0,1,16,30Z"/><path class="cls-1" d="M16,8.12q-1.71,0-1.71,1.53c0,1,.57,1.54,1.71,1.54a1.78,1.78,0,0,0,1.27-.41,1.47,1.47,0,0,0,.43-1.13C17.71,8.63,17.14,8.12,16,8.12Z"/><rect class="cls-1" x="14.44" y="12.61" width="3.13" height="11.46"/></g></g></svg>