<svg xmlns="http://www.w3.org/2000/svg" viewBox="0 0 29.5 24.46"><defs><style>.cls-1{fill:#fff;}</style></defs><title>Ativo 8</title><g id="Camada_2" data-name="Camada 2"><g id="Layer_1" data-name="Layer 1"><path class="cls-1" d="M26,0H5.64A3.5,3.5,0,0,0,2.15,3.5V14.65A23.56,23.56,0,0,1,0,24.46l3.36-1.82a23.46,23.46,0,0,1,11.21-2.85H26a3.5,3.5,0,0,0,3.5-3.5V3.5A3.5,3.5,0,0,0,26,0ZM17.11,10.5l1.05,3.4a.32.32,0,0,1-.31.42H13.56a.33.33,0,0,1-.31-.42l1.06-3.4a.34.34,0,0,0-.11-.35,2.58,2.58,0,1,1,4.09-2.1,2.54,2.54,0,0,1-1.07,2.09A.33.33,0,0,0,17.11,10.5Z"/></g></g></svg>