<svg xmlns="http://www.w3.org/2000/svg" viewBox="0 0 17.67 30.27"><defs><style>.cls-1{fill:#fff;}</style></defs><title>Ativo 9</title><g id="Camada_2" data-name="Camada 2"><g id="Layer_1" data-name="Layer 1"><path class="cls-1" d="M8.83,2a6.83,6.83,0,0,1,3.52,12.69,2,2,0,0,0-.88,2.3L15,28.27l-12.28,0L6.2,17a2,2,0,0,0-.88-2.3A7,7,0,0,1,2.87,5.3,6.76,6.76,0,0,1,5.29,2.88,8,8,0,0,1,8.83,2m0-2A9.9,9.9,0,0,0,4.4,1.09,8.75,8.75,0,0,0,1.08,4.41a9,9,0,0,0,3.2,12L.79,27.7a2,2,0,0,0,1.9,2.57H15a2,2,0,0,0,1.9-2.57l-3.5-11.3A8.83,8.83,0,0,0,8.83,0Z"/></g></g></svg>